<svg width="512" height="512" viewBox="0 0 512 512" xmlns="http://www.w3.org/2000/svg">
  <defs>
    <linearGradient id="backgroundGradient" x1="0%" y1="0%" x2="100%" y2="100%">
      <stop offset="0%" stop-color="#2E86AB"/>
      <stop offset="50%" stop-color="#48C9B0"/>
      <stop offset="100%" stop-color="#5DADE2"/>
    </linearGradient>
    <linearGradient id="bubbleGradient" x1="0%" y1="0%" x2="100%" y2="100%">
      <stop offset="0%" stop-color="#FFFFFF" stop-opacity="0.95"/>
      <stop offset="100%" stop-color="#F8F9FA" stop-opacity="0.9"/>
    </linearGradient>
    <filter id="softShadow" x="-50%" y="-50%" width="200%" height="200%">
      <feDropShadow dx="0" dy="4" stdDeviation="8" flood-color="#000000" flood-opacity="0.2"/>
    </filter>
  </defs>
  
  <!-- Background with rounded corners -->
  <rect width="512" height="512" rx="120" ry="120" fill="url(#backgroundGradient)"/>
  
  <!-- Subtle circuit pattern overlay -->
  <pattern id="circuit" x="0" y="0" width="40" height="40" patternUnits="userSpaceOnUse">
    <circle cx="20" cy="20" r="2" fill="rgba(255,255,255,0.08)"/>
    <line x1="0" y1="20" x2="40" y2="20" stroke="rgba(255,255,255,0.05)" stroke-width="1"/>
    <line x1="20" y1="0" x2="20" y2="40" stroke="rgba(255,255,255,0.05)" stroke-width="1"/>
  </pattern>
  <rect width="512" height="512" rx="120" ry="120" fill="url(#circuit)" opacity="0.6"/>
  
  <!-- Main speech bubble -->
  <path d="M150 180 Q150 140 190 140 L380 140 Q420 140 420 180 L420 280 Q420 320 380 320 L240 320 L200 360 L200 320 Q150 320 150 280 Z" 
        fill="url(#bubbleGradient)" 
        filter="url(#softShadow)"/>
  
  <!-- Medical heartbeat line inside bubble -->
  <path d="M180 240 L220 240 L235 200 L250 280 L265 220 L280 260 L295 240 L390 240" 
        stroke="#2E86AB" 
        stroke-width="4" 
        fill="none" 
        stroke-linecap="round" 
        stroke-linejoin="round"/>
  
  <!-- Medical cross accent -->
  <g transform="translate(350, 160)">
    <rect x="-3" y="-12" width="6" height="24" fill="#48C9B0" rx="2"/>
    <rect x="-12" y="-3" width="24" height="6" fill="#48C9B0" rx="2"/>
  </g>
  
  <!-- Small AI circuit nodes -->
  <circle cx="380" cy="200" r="4" fill="#5DADE2"/>
  <circle cx="340" cy="280" r="3" fill="#5DADE2"/>
  <circle cx="200" cy="190" r="3" fill="#5DADE2"/>
  
  <!-- Whisper effect lines -->
  <g opacity="0.7">
    <path d="M420 200 Q450 200 450 230" stroke="rgba(255,255,255,0.8)" stroke-width="3" fill="none" stroke-linecap="round"/>
    <path d="M430 210 Q455 210 455 235" stroke="rgba(255,255,255,0.6)" stroke-width="2" fill="none" stroke-linecap="round"/>
    <path d="M440 220 Q460 220 460 240" stroke="rgba(255,255,255,0.4)" stroke-width="2" fill="none" stroke-linecap="round"/>
  </g>
  
  <!-- Subtle highlight on bubble -->
  <ellipse cx="285" cy="180" rx="80" ry="20" fill="rgba(255,255,255,0.15)"/>
</svg>